<svg height="467pt" viewBox="-1 0 467 467.42584" width="467pt" xmlns="http://www.w3.org/2000/svg"><path d="m296.808594 364.207031v93.21875h-127.519532v-93.21875c0-22.09375 17.910157-40 40-40h47.519532c22.089844 0 40 17.90625 40 40zm0 0" fill="#fedb41"/><path d="m455.890625 203.414062h-445.683594l197.160157-182.796874c15.433593-14.300782 39.300781-14.210938 54.621093.207031zm0 0" fill="#00acea"/><path d="m402.207031 203.414062v214.011719c0 22.089844-17.90625 40-40 40h-65.398437v-93.21875c0-22.09375-17.910156-40-40-40h-47.519532c-22.089843 0-40 17.90625-40 40v93.21875h-67.691406c-22.089844 0-40-17.910156-40-40v-214.011719zm0 0" fill="#00efd1"/><path d="m268.847656 13.546875c-19.175781-17.960937-48.960937-18.074219-68.273437-.265625l-197.160157 182.800781c-3.015624 2.796875-4.011718 7.15625-2.511718 10.984375 1.503906 3.832032 5.199218 6.351563 9.3125 6.347656h41.390625v204.011719c.03125 27.601563 22.398437 49.96875 50 50h260.609375c27.601562-.03125 49.96875-22.398437 50-50v-204.011719h43.679687c4.097657 0 7.78125-2.5 9.292969-6.308593 1.511719-3.8125.546875-8.160157-2.4375-10.96875zm17.960938 433.878906h-107.519532v-83.21875c.019532-16.5625 13.4375-29.984375 30-30h47.519532c16.5625.015625 29.980468 13.4375 30 30zm105.398437-30c-.015625 16.5625-13.4375 29.980469-30 30h-55.398437v-83.21875c-.03125-27.601562-22.398438-49.96875-50-50h-47.519532c-27.601562.03125-49.96875 22.398438-50 50v83.21875h-57.691406c-16.558594-.019531-29.980468-13.4375-30-30v-204.011719h320.609375zm-356.503906-224.011719 178.464844-165.464843c11.585937-10.6875 29.460937-10.617188 40.964843.15625l175.550782 165.3125h-394.980469zm0 0" fill="#083863"/></svg>