<?xml version="1.0" encoding="utf-8"?>
<!-- Generator: Adobe Illustrator 22.0.1, SVG Export Plug-In . SVG Version: 6.00 Build 0)  -->
<svg version="1.0" id="Layer_1" xmlns="http://www.w3.org/2000/svg" xmlns:xlink="http://www.w3.org/1999/xlink" x="0px" y="0px"
	 viewBox="0 0 138 34" style="enable-background:new 0 0 138 34;" xml:space="preserve">
<style type="text/css">
	.st0{fill:#3897F1;}
</style>
<g>
	<path class="st0" d="M21.1,13.4c-1.8,0-3.3,0.6-4.6,1.9c-1.3,1.3-1.9,2.8-1.9,4.6c0,1.8,0.6,3.3,1.9,4.6c1.3,1.3,2.8,1.9,4.6,1.9
		c1.8,0,3.3-0.6,4.6-1.9c1.3-1.3,1.9-2.8,1.9-4.6c0-1.8-0.6-3.3-1.9-4.6C24.4,14.1,22.9,13.4,21.1,13.4z M23.3,22.2
		c-0.6,0.6-1.3,0.9-2.2,0.9c-0.9,0-1.6-0.3-2.2-0.9c-0.6-0.6-0.9-1.3-0.9-2.2c0-0.9,0.3-1.6,0.9-2.2c0.7-0.7,1.3-0.9,2.2-0.9
		s1.6,0.3,2.2,1c0.7,0.7,0.9,1.3,0.9,2.2C24.3,20.9,24,21.5,23.3,22.2z"/>
	<path class="st0" d="M65.6,13.4c-1.8,0-3.3,0.6-4.6,1.9C59.7,16.7,59,18.2,59,20c0,1.8,0.6,3.3,1.9,4.6c1.3,1.3,2.8,1.9,4.6,1.9
		c1.8,0,3.3-0.6,4.6-1.9c1.3-1.3,1.9-2.8,1.9-4.6c0-1.8-0.6-3.3-1.9-4.6C68.9,14.1,67.3,13.4,65.6,13.4z M67.8,22.2
		c-0.6,0.6-1.3,0.9-2.2,0.9c-0.9,0-1.6-0.3-2.2-0.9c-0.6-0.6-0.9-1.3-0.9-2.2c0-0.9,0.3-1.6,0.9-2.2c0.7-0.7,1.3-0.9,2.2-0.9
		c0.9,0,1.6,0.3,2.2,1c0.7,0.7,0.9,1.3,0.9,2.2C68.8,20.9,68.5,21.5,67.8,22.2z"/>
	<path class="st0" d="M89.8,13.4c-1.8,0-3.3,0.6-4.6,1.9c-1.3,1.3-1.9,2.8-1.9,4.6c0,1.8,0.6,3.3,1.9,4.6c1.3,1.3,2.8,1.9,4.6,1.9
		c1.8,0,3.3-0.6,4.6-1.9c1.3-1.3,1.9-2.8,1.9-4.6c0-1.8-0.6-3.3-1.9-4.6C93.1,14.1,91.6,13.4,89.8,13.4z M92.1,22.2
		c-0.6,0.6-1.3,0.9-2.2,0.9c-0.9,0-1.6-0.3-2.2-0.9c-0.6-0.6-0.9-1.3-0.9-2.2c0-0.9,0.3-1.6,0.9-2.2c0.7-0.7,1.3-0.9,2.2-0.9
		c0.9,0,1.6,0.3,2.2,1c0.7,0.7,0.9,1.3,0.9,2.2C93,20.9,92.7,21.5,92.1,22.2z"/>
	<path class="st0" d="M112.5,13.4c-1.8,0-3.3,0.6-4.6,1.9c-1.3,1.3-1.9,2.8-1.9,4.6c0,0.5,0.1,1.1,0.3,1.7l10.4-6.7
		C115.4,13.9,114,13.4,112.5,13.4z"/>
	<path class="st0" d="M137,7.2c-0.6-0.6-1.5-1-2.4-1c0,0,0,0,0,0c-3.3,0-6.2,1.2-8.7,3.5c-0.8,0.8-1.5,1.6-2.1,2.6
		c-1-1.5-2.3-2.7-3.8-3.7c-2.3-1.5-4.9-2.3-7.7-2.3c-3.8,0-7.1,1.4-9.8,4.1c-0.6,0.6-1.1,1.2-1.5,1.8c-0.4-0.6-0.9-1.2-1.4-1.8
		c-2.6-2.7-5.8-4.1-9.6-4.1c-1.2,0-2.4,0.1-3.5,0.4V3.3c0-1.8-1.5-3.3-3.3-3.3h-3.9c-0.6,0-1.2,0.2-1.7,0.5C77.2,0.2,76.6,0,76,0
		h-3.9c-1.8,0-3.3,1.5-3.3,3.3v3.3c-1.1-0.3-2.3-0.4-3.5-0.4c-3.8,0-7,1.4-9.6,4.1c-0.6,0.6-1.1,1.2-1.5,1.9
		c-0.5-0.8-1.1-1.6-1.9-2.4c-2.4-2.4-5.3-3.6-8.5-3.6c-3.2,0-6.1,1.2-8.5,3.6c-1,1-1.7,2-2.3,3.1c-0.6-0.9-1.3-1.8-2.1-2.7
		c-2.7-2.7-6-4.1-9.7-4.1c-3.8,0-7,1.4-9.7,4.1c-0.3,0.3-0.5,0.6-0.8,0.8V3.3C10.6,1.5,9.1,0,7.2,0H3.3C1.5,0,0,1.5,0,3.3V30
		c0,1.8,1.5,3.3,3.3,3.3h3.9c1.8,0,3.3-1.5,3.3-3.3v-1.1c0.2,0.2,0.4,0.5,0.6,0.7c2.6,2.7,5.8,4.1,9.6,4.1c1.8,0,3.4-0.3,4.9-0.9
		c0.5,0.4,1.2,0.6,1.9,0.6h3.9c0.6,0,1.2-0.2,1.7-0.5c0.5,0.3,1.1,0.5,1.7,0.5h3.9c1.8,0,3.3-1.5,3.3-3.3V18.3
		c0-0.4,0.1-0.7,0.5-1.1c0.4-0.4,0.7-0.5,1.1-0.5c0.4,0,0.7,0.1,1.1,0.5c0.4,0.4,0.5,0.7,0.5,1.1V30c0,1.8,1.5,3.3,3.3,3.3h3.9
		c1.8,0,3.3-1.5,3.3-3.3v-0.3c2.7,2.6,5.9,3.9,9.7,3.9c3.8,0,7-1.3,9.7-4c1-1,1.8-2,2.4-3.2c0.6,1.1,1.4,2.2,2.4,3.2
		c2.7,2.7,6,4,9.7,4c3.7,0,7-1.3,9.7-4c0.6-0.6,1.1-1.2,1.6-1.9c0.5,0.7,1,1.3,1.6,1.9c2.7,2.6,6,4,9.8,4c3.8,0,7.1-1.4,9.7-4V30
		c0,1.8,1.5,3.3,3.3,3.3h3.9c1.8,0,3.3-1.5,3.3-3.3V18.3c0-0.5,0.2-0.8,0.4-1c0,0,0,0,0,0c0.3-0.3,0.7-0.5,1.4-0.5
		c1.8,0,3.3-1.5,3.3-3.3V9.5C138,8.6,137.6,7.8,137,7.2z M7.2,30H3.3V3.3h3.9V30z M31.5,30h-3.9v-2.4c-1.9,1.8-4.2,2.7-6.9,2.7
		c-2.8,0-5.2-1-7.2-3.1c-2-2-2.9-4.5-2.9-7.3c0-2.9,1-5.3,3.1-7.4c2.1-2.1,4.5-3.1,7.4-3.1c2.9,0,5.3,1,7.4,3.1
		c2.1,2.1,3.1,4.5,3.1,7.4V30z M52.6,30h-3.9V18.3c0-1.3-0.5-2.5-1.5-3.4c-1-1-2.1-1.5-3.4-1.5c-1.3,0-2.5,0.5-3.4,1.5
		c-1,1-1.5,2.1-1.5,3.4V30h-3.9V18.3c0-2.3,0.9-4.4,2.7-6.2c1.8-1.8,3.8-2.7,6.2-2.7c2.3,0,4.4,0.9,6.1,2.7c1.2,1.2,2,2.6,2.4,4
		c0.2,0.7,0.3,1.4,0.3,2.1v6.2V30z M76,20c0,2.9-1,5.3-3.1,7.4c-2.1,2-4.5,3-7.4,3c-2.9,0-5.3-1-7.4-3c-1-1-1.8-2.1-2.3-3.4
		c-0.5-1.2-0.8-2.6-0.8-4c0-1.3,0.2-2.5,0.6-3.6c0.5-1.4,1.3-2.6,2.3-3.8c2-2.1,4.3-3.1,7.2-3.1c2.6,0,4.9,0.9,6.9,2.8v-9H76V20z
		 M97.2,27.3c-2.1,2-4.5,3-7.4,3c-2.9,0-5.3-1-7.4-3c-2-2-3.1-4.5-3.1-7.4V3.3h3.9v9c1.9-1.8,4.2-2.8,6.8-2.8c2.8,0,5.2,1,7.1,3.1
		c0.9,0.9,1.6,2,2.1,3c0.6,1.3,0.9,2.7,0.9,4.3c0,1.6-0.3,3-0.9,4.3C98.8,25.4,98.1,26.4,97.2,27.3z M119.9,27.2
		c-2,2.1-4.5,3.1-7.4,3.1c-2.9,0-5.4-1-7.4-3c-0.9-0.9-1.7-2-2.2-3.1c-0.6-1.3-0.9-2.7-0.9-4.3c0-1.6,0.3-3,0.9-4.3
		c0.5-1.1,1.2-2.1,2.1-3.1c2-2.1,4.5-3.1,7.4-3.1c2.1,0,4,0.6,5.8,1.8c1.7,1.2,3,2.7,3.9,4.7l-13.8,9c1.2,1,2.6,1.5,4.2,1.5
		c1.9,0,3.4-0.7,4.6-2c1.2-1.3,1.8-2.9,1.9-4.8h3.2h0.7c0,1.5-0.3,2.8-0.7,4C121.7,25,120.9,26.2,119.9,27.2z M134.7,13.4
		c-1.5,0-2.7,0.5-3.7,1.4c-1,0.9-1.5,2.1-1.5,3.5V30h-3.9v-5.7v-6c0-0.2,0-0.5,0-0.7c0.2-2.1,1.1-4,2.7-5.5c1.8-1.7,4-2.6,6.4-2.6
		V13.4z"/>
</g>
</svg>
